<svg width="576" height="146" viewBox="0 0 576 146" fill="none" xmlns="http://www.w3.org/2000/svg">
<path d="M519.764 107.136C519.764 109.184 519.636 111.317 519.38 113.536H469.844C470.185 117.973 471.593 121.387 474.068 123.776C476.628 126.08 479.743 127.232 483.412 127.232C488.873 127.232 492.671 124.928 494.804 120.32H518.1C516.905 125.013 514.729 129.237 511.572 132.992C508.5 136.747 504.617 139.691 499.924 141.824C495.231 143.957 489.983 145.024 484.18 145.024C477.183 145.024 470.953 143.531 465.492 140.544C460.031 137.557 455.764 133.291 452.692 127.744C449.62 122.197 448.084 115.712 448.084 108.288C448.084 100.864 449.577 94.3787 452.564 88.832C455.636 83.2853 459.903 79.0187 465.364 76.032C470.825 73.0453 477.097 71.552 484.18 71.552C491.092 71.552 497.236 73.0027 502.612 75.904C507.988 78.8053 512.169 82.944 515.156 88.32C518.228 93.696 519.764 99.968 519.764 107.136ZM497.364 101.376C497.364 97.6213 496.084 94.6347 493.524 92.416C490.964 90.1973 487.764 89.088 483.924 89.088C480.255 89.088 477.14 90.1547 474.58 92.288C472.105 94.4213 470.569 97.4507 469.972 101.376H497.364Z" fill="#162A39"/>
<path d="M387.449 82.688C389.497 79.36 392.441 76.672 396.281 74.624C400.121 72.576 404.516 71.552 409.465 71.552C415.353 71.552 420.686 73.0453 425.465 76.032C430.244 79.0187 433.998 83.2853 436.729 88.832C439.545 94.3787 440.953 100.821 440.953 108.16C440.953 115.499 439.545 121.984 436.729 127.616C433.998 133.163 430.244 137.472 425.465 140.544C420.686 143.531 415.353 145.024 409.465 145.024C404.43 145.024 400.036 144.043 396.281 142.08C392.526 140.032 389.582 137.344 387.449 134.016V144H365.561V49.28H387.449V82.688ZM418.681 108.16C418.681 102.699 417.145 98.432 414.073 95.36C411.086 92.2027 407.374 90.624 402.937 90.624C398.585 90.624 394.873 92.2027 391.801 95.36C388.814 98.5173 387.321 102.827 387.321 108.288C387.321 113.749 388.814 118.059 391.801 121.216C394.873 124.373 398.585 125.952 402.937 125.952C407.289 125.952 411.001 124.373 414.073 121.216C417.145 117.973 418.681 113.621 418.681 108.16Z" fill="#162A39"/>
<path d="M338.819 65.152C334.979 65.152 331.822 64.0427 329.347 61.824C326.958 59.52 325.763 56.704 325.763 53.376C325.763 49.9627 326.958 47.1467 329.347 44.928C331.822 42.624 334.979 41.472 338.819 41.472C342.574 41.472 345.646 42.624 348.035 44.928C350.51 47.1467 351.747 49.9627 351.747 53.376C351.747 56.704 350.51 59.52 348.035 61.824C345.646 64.0427 342.574 65.152 338.819 65.152ZM349.699 72.576V144H327.811V72.576H349.699Z" fill="#162A39"/>
<path d="M318.663 54.144L286.791 144H259.399L227.527 54.144H250.823L273.095 121.984L295.495 54.144H318.663Z" fill="#162A39"/>
<path d="M222.764 107.136C222.764 109.184 222.636 111.317 222.38 113.536H172.844C173.185 117.973 174.593 121.387 177.068 123.776C179.628 126.08 182.743 127.232 186.412 127.232C191.873 127.232 195.671 124.928 197.804 120.32H221.1C219.905 125.013 217.729 129.237 214.572 132.992C211.5 136.747 207.617 139.691 202.924 141.824C198.231 143.957 192.983 145.024 187.18 145.024C180.183 145.024 173.953 143.531 168.492 140.544C163.031 137.557 158.764 133.291 155.692 127.744C152.62 122.197 151.084 115.712 151.084 108.288C151.084 100.864 152.577 94.3787 155.564 88.832C158.636 83.2853 162.903 79.0187 168.364 76.032C173.825 73.0453 180.097 71.552 187.18 71.552C194.092 71.552 200.236 73.0027 205.612 75.904C210.988 78.8053 215.169 82.944 218.156 88.32C221.228 93.696 222.764 99.968 222.764 107.136ZM200.364 101.376C200.364 97.6213 199.084 94.6347 196.524 92.416C193.964 90.1973 190.764 89.088 186.924 89.088C183.255 89.088 180.14 90.1547 177.58 92.288C175.105 94.4213 173.569 97.4507 172.972 101.376H200.364Z" fill="#162A39"/>
<path d="M117.76 144L99.072 110.08H93.824V144H71.936V54.144H108.672C115.755 54.144 121.771 55.3813 126.72 57.856C131.755 60.3307 135.509 63.744 137.984 68.096C140.459 72.3627 141.696 77.1413 141.696 82.432C141.696 88.4053 139.989 93.7387 136.576 98.432C133.248 103.125 128.299 106.453 121.728 108.416L142.464 144H117.76ZM93.824 94.592H107.392C111.403 94.592 114.389 93.6107 116.352 91.648C118.4 89.6853 119.424 86.912 119.424 83.328C119.424 79.9147 118.4 77.2267 116.352 75.264C114.389 73.3013 111.403 72.32 107.392 72.32H93.824V94.592Z" fill="#162A39"/>
<path d="M68.0001 41C34.0001 41 68.0001 144 68.0001 144C68.0001 144 -47.9999 -1.90735e-06 25.0001 -1.90735e-06H262C271 -1.90735e-06 270 41 262 41H68.0001Z" fill="#D9D9D9"/>
<path d="M262 -1.90735e-06C270.93 -1.90735e-06 270.015 40.3605 262.187 40.9922L262 41H68V31H257.241C257.886 28.2832 258.326 24.4838 258.376 20.3779C258.426 16.3092 258.083 12.6177 257.508 10H25C17.3409 10 14.285 11.8927 13.0713 13.1455C11.8835 14.3716 10.6765 16.8283 10.9121 22.0488C11.4069 33.0109 17.9664 49.2105 27.8799 67.167C33.3814 77.132 39.6286 87.1397 45.7647 96.375C45.6345 95.627 45.5075 94.8781 45.3838 94.1289C43.2218 81.03 41.9176 66.8099 43.79 55.4648C44.7268 49.7895 46.6155 43.7984 50.5254 39.0605C54.7894 33.8937 60.8291 31 68 31V41L67.6045 41.0049C34.2711 41.8037 67.9885 143.965 68 144C67.941 143.927 -47.9812 0.000108436 25 -1.90735e-06H262Z" fill="#9A2D23"/>
<path d="M575.913 51.92V80H569.073V63.16L562.793 80H557.273L550.953 63.12V80H544.113V51.92H552.193L560.073 71.36L567.873 51.92H575.913Z" fill="#162A39"/>
<path d="M540.68 51.92V57.4H533.24V80H526.4V57.4H518.96V51.92H540.68Z" fill="#162A39"/>
<path d="M264 21H73" stroke="#9A2D23" stroke-width="5"/>
<path d="M68.2491 10V31C47.5303 37.5598 43.751 52 57.0001 119C25.751 58 -6.06541 28.9293 16 10H68.2491Z" fill="#162A39"/>
<path d="M68.2491 10V31C47.5304 37.5598 43.751 52.0002 57.0001 119C25.751 58.0001 -6.06536 28.9293 16 10H68.2491ZM20.2344 20C18.9056 21.8479 18.5594 23.6706 18.6865 25.8594C18.9228 29.9291 20.91 35.635 25.3525 44.0586C29.0045 50.9832 33.7761 58.7946 39.4297 68.0752C39.104 61.4553 39.2751 55.7724 39.9922 50.8838C41.1332 43.1065 43.7417 36.5213 48.5323 31.3203C51.3971 28.2101 54.7256 25.9444 58.2491 24.2168V20H20.2344Z" fill="#162A39"/>
<path d="M25.4616 14L27.9313 21.6008H35.9232L29.4576 26.2984L31.9273 33.8992L25.4616 29.2016L18.996 33.8992L21.4656 26.2984L15 21.6008H22.992L25.4616 14Z" fill="#D9D9D9"/>
<path d="M36.4616 41L38.9313 48.6008H46.9232L40.4576 53.2984L42.9273 60.8992L36.4616 56.2016L29.996 60.8992L32.4656 53.2984L26 48.6008H33.992L36.4616 41Z" fill="#D9D9D9"/>
<path d="M50.4616 14L52.9313 21.6008H60.9232L54.4576 26.2984L56.9273 33.8992L50.4616 29.2016L43.996 33.8992L46.4656 26.2984L40 21.6008H47.992L50.4616 14Z" fill="#D9D9D9"/>
</svg>
