<svg width="1208" height="428" viewBox="0 0 1208 428" fill="none" xmlns="http://www.w3.org/2000/svg">
<path d="M163 0L201.479 127.959H326L215.5 207.041L201.479 219.5L163 255.917L62.2605 335L100.74 207.041L0 127.959L124.521 127.959L163 0Z" fill="#C80619"/>
<path d="M1115.42 367.971C1121.8 367.971 1127.73 367.287 1133.2 365.92C1137.75 364.781 1142.08 362.958 1146.19 360.451C1150.51 357.717 1153.36 353.729 1154.73 348.488C1159.29 349.4 1163.16 350.197 1166.35 350.881C1169.54 351.337 1172.28 351.792 1174.55 352.248C1177.06 352.932 1179.23 353.387 1181.05 353.615C1182.87 354.071 1185.04 354.527 1187.54 354.982C1189.82 355.438 1192.56 356.008 1195.75 356.691C1199.16 357.147 1203.15 357.831 1207.71 358.742C1204.29 358.286 1200.76 358.628 1197.11 359.768C1193.7 360.907 1190.39 362.16 1187.2 363.527C1183.56 365.122 1180.14 367.059 1176.95 369.338C1174.9 370.705 1172.5 372.756 1169.77 375.49C1167.26 378.225 1163.62 380.845 1158.83 383.352C1154.05 385.858 1147.67 388.023 1139.69 389.846C1131.94 391.441 1121.92 392.01 1109.61 391.555C1094.8 391.099 1082.38 388.479 1072.36 383.693C1062.33 378.68 1054.24 372.642 1048.09 365.578C1041.94 358.286 1037.49 350.425 1034.76 341.994C1032.03 333.563 1030.54 325.702 1030.32 318.41C1030.09 311.118 1032.25 303.485 1036.81 295.51C1041.37 287.534 1047.75 280.243 1055.95 273.635C1064.38 267.027 1074.52 261.672 1086.37 257.57C1098.22 253.241 1111.21 251.076 1125.34 251.076C1133.54 251.076 1141.06 252.102 1147.89 254.152C1154.96 255.975 1161.34 258.482 1167.04 261.672C1172.96 264.862 1178.09 268.508 1182.42 272.609C1186.75 276.483 1190.39 280.471 1193.35 284.572C1196.32 288.902 1198.82 293.459 1200.87 298.244C1202.7 302.346 1204.18 307.017 1205.32 312.258C1206.46 317.499 1206.8 322.854 1206.34 328.322C1189.02 328.778 1175.01 329.12 1164.3 329.348C1153.82 329.576 1145.62 329.689 1139.69 329.689H1124.31H1112.69C1108.59 329.689 1103.23 329.803 1096.62 330.031C1090.02 330.259 1081.93 330.601 1072.36 331.057C1073.5 340.171 1076.35 347.235 1080.9 352.248C1085.69 357.033 1090.7 360.679 1095.94 363.186C1101.87 365.92 1108.36 367.515 1115.42 367.971ZM1084.66 306.447C1091.95 306.903 1097.99 307.245 1102.78 307.473C1107.79 307.701 1111.89 307.928 1115.08 308.156C1118.5 308.384 1121.23 308.498 1123.29 308.498H1131.83C1137.53 308.498 1148.12 308.156 1163.62 307.473C1162.93 297.447 1160.77 289.813 1157.12 284.572C1153.71 279.331 1150.06 275.458 1146.19 272.951C1141.63 270.217 1136.62 268.622 1131.15 268.166C1116.34 268.394 1105.28 271.47 1097.99 277.395C1090.93 283.319 1086.49 293.003 1084.66 306.447Z" fill="black"/>
<path d="M822.846 183.059C828.087 184.426 832.872 185.451 837.201 186.135C841.758 186.59 845.632 186.932 848.822 187.16C852.696 187.388 856.228 187.502 859.418 187.502C862.608 187.502 866.596 187.274 871.381 186.818C879.812 186.135 891.775 184.426 907.27 181.691C904.763 183.514 902.37 185.337 900.092 187.16C898.041 188.755 896.218 190.35 894.623 191.945L889.496 197.072C886.534 201.174 883.572 208.124 880.609 217.922C878.103 226.353 875.368 238.202 872.406 253.469C869.672 268.736 867.165 289.016 864.887 314.309C876.052 303.371 886.534 295.168 896.332 289.699C906.358 284.003 915.131 279.901 922.65 277.395C931.537 274.66 939.626 273.179 946.918 272.951C956.26 273.635 964.35 275.572 971.186 278.762C978.249 281.724 984.174 285.37 988.959 289.699C993.972 293.801 997.96 298.13 1000.92 302.687C1004.11 307.017 1006.5 310.891 1008.1 314.309C1009.01 316.587 1009.69 320.803 1010.15 326.955C1010.83 332.88 1010.95 339.715 1010.49 347.463C1010.04 355.21 1008.78 363.413 1006.73 372.072C1004.91 380.503 1001.83 388.365 997.504 395.656C993.402 402.72 987.934 408.645 981.098 413.43C974.49 418.215 966.173 420.835 956.146 421.291C944.525 421.291 933.246 419.924 922.309 417.189C912.966 414.911 903.054 410.923 892.572 405.227C882.318 399.302 873.546 390.871 866.254 379.934C866.254 382.668 866.254 385.402 866.254 388.137C866.254 390.643 866.368 392.808 866.596 394.631C866.824 397.137 867.051 399.302 867.279 401.125C867.507 403.176 868.077 405.34 868.988 407.619C869.672 409.442 870.697 411.721 872.064 414.455C873.66 416.962 875.71 419.468 878.217 421.975C875.71 421.747 873.204 421.633 870.697 421.633C868.191 421.405 865.684 421.405 863.178 421.633C860.443 421.861 857.709 422.089 854.975 422.316C852.24 422.544 849.392 422.886 846.43 423.342C843.923 423.798 840.961 424.367 837.543 425.051C834.125 425.734 830.593 426.532 826.947 427.443C827.631 425.393 828.201 422.43 828.656 418.557C829.112 414.455 829.568 410.012 830.023 405.227C830.707 400.214 831.163 394.973 831.391 389.504C831.846 384.035 832.302 378.566 832.758 373.098C833.669 360.565 834.467 346.893 835.15 332.082C835.834 309.068 835.948 287.648 835.492 267.824C835.264 259.393 834.809 250.848 834.125 242.189C833.669 233.531 832.986 225.441 832.074 217.922C831.163 210.174 829.91 203.339 828.314 197.414C826.947 191.262 825.124 186.477 822.846 183.059ZM867.279 349.514C870.925 356.122 874.799 361.818 878.9 366.604C883.002 371.161 887.104 375.034 891.205 378.225C895.307 381.415 899.294 383.921 903.168 385.744C907.27 387.567 911.143 388.934 914.789 389.846C923.22 392.124 931.537 392.352 939.74 390.529C947.943 388.251 954.324 383.693 958.881 376.857C963.438 370.021 966.97 362.274 969.477 353.615C970.616 349.514 971.299 344.273 971.527 337.893C971.983 331.512 971.299 325.36 969.477 319.436C967.882 313.283 964.919 307.928 960.59 303.371C956.26 298.586 949.994 295.738 941.791 294.826C936.094 294.826 929.486 296.421 921.967 299.611C915.359 302.346 907.497 306.903 898.383 313.283C889.268 319.436 878.9 328.664 867.279 340.969V349.514Z" fill="black"/>
<path d="M739.105 270.217L801.996 270.9C798.35 284.8 795.616 296.649 793.793 306.447C792.198 316.245 791.173 324.449 790.717 331.057C789.805 338.576 789.577 344.956 790.033 350.197C790.717 354.982 791.856 360.109 793.451 365.578C794.818 370.135 796.869 375.376 799.604 381.301C802.338 387.225 805.984 393.15 810.541 399.074C807.807 398.163 804.844 397.479 801.654 397.023C798.464 396.568 795.502 396.226 792.768 395.998C789.577 395.77 786.387 395.77 783.197 395.998C780.007 396.226 776.475 396.568 772.602 397.023C769.411 397.479 765.538 398.049 760.98 398.732C756.423 399.416 751.638 400.327 746.625 401.467C750.043 391.213 752.663 382.326 754.486 374.807C756.537 367.287 758.018 361.021 758.93 356.008C759.841 350.083 760.411 345.298 760.639 341.652C760.639 337.095 760.639 331.968 760.639 326.271C760.639 320.347 760.639 314.65 760.639 309.182C760.639 303.713 760.525 298.928 760.297 294.826C760.069 290.497 759.613 287.762 758.93 286.623L755.512 283.205C754.145 282.066 752.094 280.471 749.359 278.42C746.853 276.141 743.435 273.407 739.105 270.217ZM771.5 230.227C766.715 229.087 776.285 227.72 771.5 230.227C768.766 227.036 776.513 231.366 771.5 230.227C772.411 225.897 774.234 233.417 771.5 230.227C778.108 226.125 770.816 234.556 771.5 230.227C776.513 231.366 764.892 234.1 771.5 230.227C773.551 233.872 766.487 229.087 771.5 230.227C770.133 235.012 769.449 226.581 771.5 230.227C765.348 233.645 772.867 225.214 771.5 230.227Z" fill="black"/>
<path d="M533.344 177.59C548.611 178.273 560.46 178.615 568.891 178.615H581.537C585.183 178.615 589.74 178.501 595.209 178.273C599.766 178.046 605.577 177.932 612.641 177.932C619.704 177.704 628.135 177.362 637.934 176.906C633.376 180.096 629.73 183.173 626.996 186.135C624.262 189.097 622.097 191.717 620.502 193.996C618.679 196.73 617.426 199.237 616.742 201.516C615.147 207.44 614.464 215.529 614.691 225.783C615.147 235.809 616.173 246.747 617.768 258.596C619.363 270.217 621.299 282.066 623.578 294.143C625.857 306.219 628.135 317.157 630.414 326.955C632.921 336.753 635.085 344.842 636.908 351.223C638.959 357.375 640.44 360.451 641.352 360.451C642.263 360.451 643.972 357.147 646.479 350.539C649.213 343.931 652.289 335.614 655.707 325.588C659.125 315.334 662.657 304.283 666.303 292.434C669.949 280.357 673.253 268.964 676.215 258.254C679.405 247.316 682.025 237.974 684.076 230.227C686.127 222.251 687.152 217.352 687.152 215.529C686.924 213.023 686.127 210.402 684.76 207.668C683.62 205.161 681.57 202.313 678.607 199.123C675.873 195.705 671.999 191.831 666.986 187.502C674.05 187.274 680.089 187.046 685.102 186.818C690.342 186.59 694.786 186.477 698.432 186.477H709.027H763.715C758.018 190.35 753.119 194.11 749.018 197.756C745.144 201.402 741.954 204.82 739.447 208.01C736.485 211.656 733.979 215.074 731.928 218.264C729.649 223.049 725.889 233.417 720.648 249.367C718.37 256.203 715.749 264.52 712.787 274.318C709.825 284.117 706.293 295.852 702.191 309.523C698.09 323.195 693.533 339.032 688.52 357.033C683.507 374.807 677.81 395.087 671.43 417.873L623.92 424.025C618.223 406.252 613.21 390.074 608.881 375.49C604.779 360.679 601.133 348.033 597.943 337.551C594.298 325.246 591.221 314.195 588.715 304.396C585.297 292.548 582.335 280.585 579.828 268.508C577.549 256.203 575.499 245.152 573.676 235.354C572.081 225.327 570.6 217.01 569.232 210.402C567.865 203.794 566.384 199.921 564.789 198.781C563.422 197.642 561.371 196.161 558.637 194.338C556.13 192.743 552.94 190.692 549.066 188.186C544.965 185.451 539.724 181.919 533.344 177.59Z" fill="black"/>
<path d="M467.035 367.971C473.415 367.971 479.34 367.287 484.809 365.92C489.366 364.781 493.695 362.958 497.797 360.451C502.126 357.717 504.975 353.729 506.342 348.488C510.899 349.4 514.773 350.197 517.963 350.881C521.153 351.337 523.887 351.792 526.166 352.248C528.673 352.932 530.837 353.387 532.66 353.615C534.483 354.071 536.648 354.527 539.154 354.982C541.433 355.438 544.167 356.008 547.357 356.691C550.775 357.147 554.763 357.831 559.32 358.742C555.902 358.286 552.37 358.628 548.725 359.768C545.307 360.907 542.003 362.16 538.812 363.527C535.167 365.122 531.749 367.059 528.559 369.338C526.508 370.705 524.115 372.756 521.381 375.49C518.874 378.225 515.229 380.845 510.443 383.352C505.658 385.858 499.278 388.023 491.303 389.846C483.555 391.441 473.529 392.01 461.225 391.555C446.413 391.099 433.995 388.479 423.969 383.693C413.943 378.68 405.854 372.642 399.701 365.578C393.549 358.286 389.105 350.425 386.371 341.994C383.637 333.563 382.156 325.702 381.928 318.41C381.7 311.118 383.865 303.485 388.422 295.51C392.979 287.534 399.359 280.243 407.562 273.635C415.993 267.027 426.133 261.672 437.982 257.57C449.831 253.241 462.82 251.076 476.947 251.076C485.15 251.076 492.67 252.102 499.506 254.152C506.57 255.975 512.95 258.482 518.646 261.672C524.571 264.862 529.698 268.508 534.027 272.609C538.357 276.483 542.003 280.471 544.965 284.572C547.927 288.902 550.434 293.459 552.484 298.244C554.307 302.346 555.788 307.017 556.928 312.258C558.067 317.499 558.409 322.854 557.953 328.322C540.635 328.778 526.622 329.12 515.912 329.348C505.43 329.576 497.227 329.689 491.303 329.689H475.922H464.301C460.199 329.689 454.844 329.803 448.236 330.031C441.628 330.259 433.539 330.601 423.969 331.057C425.108 340.171 427.956 347.235 432.514 352.248C437.299 357.033 442.312 360.679 447.553 363.186C453.477 365.92 459.971 367.515 467.035 367.971ZM436.273 306.447C443.565 306.903 449.604 307.245 454.389 307.473C459.402 307.701 463.503 307.928 466.693 308.156C470.111 308.384 472.846 308.498 474.896 308.498H483.441C489.138 308.498 499.734 308.156 515.229 307.473C514.545 297.447 512.38 289.813 508.734 284.572C505.316 279.331 501.671 275.458 497.797 272.951C493.24 270.217 488.227 268.622 482.758 268.166C467.947 268.394 456.895 271.47 449.604 277.395C442.54 283.319 438.096 293.003 436.273 306.447Z" fill="black"/>
<path d="M143.695 173.488C150.987 174.628 157.595 175.653 163.52 176.564C169.444 177.248 174.571 177.818 178.9 178.273C183.913 178.957 188.357 179.527 192.23 179.982C197.016 180.666 204.193 179.868 213.764 177.59C223.334 175.083 233.816 172.805 245.209 170.754C256.83 168.475 268.679 167.222 280.756 166.994C292.833 166.538 303.884 168.703 313.91 173.488C323.936 178.273 332.139 183.059 338.52 187.844C344.9 192.629 349.913 197.756 353.559 203.225C357.432 208.465 360.167 214.048 361.762 219.973C363.357 225.897 364.268 232.391 364.496 239.455C364.268 249.937 361.762 260.077 356.977 269.875C354.926 273.977 352.191 278.306 348.773 282.863C345.583 287.193 341.596 291.408 336.811 295.51C332.025 299.611 326.329 303.485 319.721 307.131C313.34 310.777 305.821 313.967 297.162 316.701C305.593 319.208 312.543 322.17 318.012 325.588C323.708 329.006 328.266 332.196 331.684 335.158C335.785 338.804 338.861 342.336 340.912 345.754C343.419 350.539 345.128 354.641 346.039 358.059C346.951 361.477 347.52 364.781 347.748 367.971C348.204 370.933 348.773 374.009 349.457 377.199C350.141 380.389 351.622 384.035 353.9 388.137C355.723 391.327 357.888 394.631 360.395 398.049C362.673 401.011 365.294 404.201 368.256 407.619C371.446 411.037 375.32 414.341 379.877 417.531C373.497 417.759 367.572 417.873 362.104 417.873C356.863 417.873 352.305 417.873 348.432 417.873C343.874 417.873 339.545 417.759 335.443 417.531C331.342 417.303 326.215 417.189 320.062 417.189C314.822 417.189 308.1 417.189 299.896 417.189C291.921 417.189 282.237 417.303 270.844 417.531C275.857 413.658 279.958 409.784 283.148 405.91C286.339 402.036 288.845 398.505 290.668 395.314C292.719 391.669 294.2 388.137 295.111 384.719C296.251 378.566 296.365 372.186 295.453 365.578C294.77 359.882 292.947 353.615 289.984 346.779C287.022 339.715 282.237 332.652 275.629 325.588C269.021 326.727 263.438 327.639 258.881 328.322C254.551 328.778 250.792 329.234 247.602 329.689C243.956 330.145 240.993 330.487 238.715 330.715C236.664 330.943 234.385 331.171 231.879 331.398C229.828 331.626 227.549 331.968 225.043 332.424C222.764 332.652 220.6 332.993 218.549 333.449C218.093 343.247 218.093 351.792 218.549 359.084C219.005 366.148 219.574 372.072 220.258 376.857C221.169 382.554 222.195 387.453 223.334 391.555C224.473 395.656 226.068 399.644 228.119 403.518C229.714 406.708 231.765 410.126 234.271 413.771C236.778 417.189 239.626 420.038 242.816 422.316C236.892 422.316 231.195 422.316 225.727 422.316C220.486 422.316 215.701 422.202 211.371 421.975C206.358 421.975 201.573 421.861 197.016 421.633C192.458 421.405 187.331 421.291 181.635 421.291C176.85 421.291 171.153 421.291 164.545 421.291C158.165 421.291 151.215 421.405 143.695 421.633C149.62 415.48 154.291 410.24 157.709 405.91C161.127 401.581 163.747 397.935 165.57 394.973C167.621 391.783 168.874 389.048 169.33 386.77C169.786 383.124 170.128 376.63 170.355 367.287C170.811 357.717 171.153 346.779 171.381 334.475C171.609 322.17 171.723 309.296 171.723 295.852C171.723 282.408 171.609 269.875 171.381 258.254C171.153 246.405 170.925 236.265 170.697 227.834C170.469 219.403 170.242 214.048 170.014 211.77C169.33 207.668 167.849 203.566 165.57 199.465C163.747 195.819 161.127 191.717 157.709 187.16C154.291 182.603 149.62 178.046 143.695 173.488ZM272.895 293.801C275.173 292.434 277.11 291.066 278.705 289.699C280.3 288.332 281.667 286.167 282.807 283.205C283.946 280.015 284.857 275.572 285.541 269.875C286.452 264.178 287.478 256.431 288.617 246.633C289.529 236.835 288.845 228.745 286.566 222.365C284.516 215.985 281.667 210.972 278.021 207.326C274.604 203.452 270.73 200.832 266.4 199.465C262.299 197.87 258.653 197.072 255.463 197.072C249.083 197.072 242.816 199.009 236.664 202.883C230.512 206.757 225.84 211.997 222.65 218.605C221.511 221.568 220.486 226.467 219.574 233.303C218.891 239.227 218.435 247.43 218.207 257.912C217.979 268.394 218.321 282.18 219.232 299.27C227.891 300.637 235.525 301.206 242.133 300.979C248.741 300.523 254.324 299.725 258.881 298.586C264.35 297.447 269.021 295.852 272.895 293.801Z" fill="black"/>
<path d="M770.532 265.119L765.366 240.203L741.73 238.121L762.174 224.805L757.008 199.89L774.808 216.575L795.251 203.259L785.809 226.887L803.609 243.572L779.974 241.49L770.532 265.119Z" fill="#C80619"/>
</svg>
