<svg width="263" height="144" viewBox="0 0 263 144" fill="none" xmlns="http://www.w3.org/2000/svg">
<path d="M68.0001 41C34.0001 41 68.0001 144 68.0001 144C68.0001 144 -47.9999 0 25.0001 0H139.5C148.5 0 147.5 41 139.5 41H68.0001Z" fill="#D9D9D9"/>
<path d="M139.617 0C148.547 0 147.446 40.3683 139.617 41H262.117H68.1172V31H134.997C134.997 29.5 134.947 25.1059 134.997 21C135.047 16.9313 134.997 12.5 134.997 10H25.1172C17.4581 10 14.4022 11.8927 13.1885 13.1455C12.0007 14.3716 10.7937 16.8283 11.0293 22.0488C11.5241 33.0109 18.0836 49.2105 27.9971 67.167C33.4986 77.132 39.7458 87.1397 45.8818 96.375C45.7517 95.627 45.6246 94.8781 45.501 94.1289C43.339 81.03 42.0347 66.8099 43.9072 55.4648C44.844 49.7895 46.7327 43.7984 50.6426 39.0605C54.9066 33.8937 60.9463 31 68.1172 31V41L67.7217 41.0049C34.3883 41.8037 68.1057 143.965 68.1172 144C68.0582 143.927 -47.864 0.000110343 25.1172 0H139.617Z" fill="#9A2D23"/>
<path d="M135 21H72" stroke="#9A2D23" stroke-width="5"/>
<path d="M67.2491 10V31C46.5303 37.5598 42.751 52 56.0001 119C24.751 58 -7.06541 28.9293 15 10H67.2491Z" fill="#162A39"/>
<path d="M67.2491 10V31C46.5304 37.5598 42.751 52.0002 56.0001 119C24.751 58.0001 -7.06536 28.9293 15 10H67.2491ZM19.2344 20C17.9056 21.8479 17.5594 23.6706 17.6865 25.8594C17.9228 29.9291 19.91 35.635 24.3525 44.0586C28.0045 50.9832 32.7761 58.7946 38.4297 68.0752C38.104 61.4553 38.2751 55.7724 38.9922 50.8838C40.1332 43.1065 42.7417 36.5213 47.5323 31.3203C50.3971 28.2101 53.7256 25.9444 57.2491 24.2168V20H19.2344Z" fill="#162A39"/>
<path d="M24.4616 14L26.9313 21.6008H34.9232L28.4576 26.2984L30.9273 33.8992L24.4616 29.2016L17.996 33.8992L20.4656 26.2984L14 21.6008H21.992L24.4616 14Z" fill="#D9D9D9"/>
<path d="M35.4616 41L37.9313 48.6008H45.9232L39.4576 53.2984L41.9273 60.8992L35.4616 56.2016L28.996 60.8992L31.4656 53.2984L25 48.6008H32.992L35.4616 41Z" fill="#D9D9D9"/>
<path d="M49.4616 14L51.9313 21.6008H59.9232L53.4576 26.2984L55.9273 33.8992L49.4616 29.2016L42.996 33.8992L45.4656 26.2984L39 21.6008H46.992L49.4616 14Z" fill="#D9D9D9"/>
</svg>
