<svg width="458" height="331" viewBox="0 0 458 331" fill="none" xmlns="http://www.w3.org/2000/svg">
<path d="M151.578 32.2793L159.569 94.6462L221.353 106.319L164.508 133.191L184.689 234.256L129.376 149.799L72.5309 176.672L102.724 121.519L59.6009 75.7599L121.385 87.4323L151.578 32.2793Z" fill="white"/>
<path d="M151.578 32.2793L159.569 94.6462L221.353 106.319L164.508 133.191L184.689 234.256L129.376 149.799L72.5309 176.672L102.724 121.519L59.6009 75.7599L121.385 87.4323L151.578 32.2793Z" fill="white"/>
<path d="M144.644 63.7573L149.47 101.423L186.784 108.473L152.453 124.702L164.641 185.74L131.235 134.733L96.9035 150.962L115.139 117.653L89.0945 90.0172L126.408 97.0666L144.644 63.7573Z" fill="#C80619"/>
<path d="M144.644 63.7573L149.47 101.423L186.784 108.473L152.453 124.702L164.641 185.74L131.235 134.733L96.9035 150.962L115.139 117.653L89.0945 90.0172L126.408 97.0666L144.644 63.7573Z" fill="#C80619"/>
<path d="M38.895 213.865L37.5206 184.018L8.70977 176.102L36.6713 165.572L31.0194 116.925L53.9524 159.064L81.9139 148.533L65.4821 173.488L84.1376 196.827L55.3268 188.911L38.895 213.865Z" fill="white"/>
<path d="M38.895 213.865L37.5206 184.018L8.70977 176.102L36.6713 165.572L31.0194 116.925L53.9524 159.064L81.9139 148.533L65.4821 173.488L84.1376 196.827L55.3268 188.911L38.895 213.865Z" fill="white"/>
<path d="M43.3959 199.225L42.5659 181.199L25.1657 176.418L42.0529 170.058L38.6395 140.679L52.4898 166.128L69.377 159.768L59.4531 174.839L70.72 188.935L53.3198 184.154L43.3959 199.225Z" fill="#C80619"/>
<path d="M43.3959 199.225L42.5659 181.199L25.1657 176.418L42.0529 170.058L38.6395 140.679L52.4898 166.128L69.377 159.768L59.4531 174.839L70.72 188.935L53.3198 184.154L43.3959 199.225Z" fill="#C80619"/>
<path d="M175.055 135.222L261.449 121.861L277.618 18.5606L314.843 113.603L454.843 79.862L337.849 172.343L375.074 267.386L298.674 216.903L235.287 289.004L251.456 185.704L175.055 135.222Z" fill="white"/>
<path d="M175.055 135.222L261.449 121.861L277.618 18.5606L314.843 113.603L454.843 79.862L337.849 172.343L375.074 267.386L298.674 216.903L235.287 289.004L251.456 185.704L175.055 135.222Z" fill="white"/>
<path d="M218.66 146.816L270.837 138.747L280.602 76.3591L303.084 133.76L387.636 113.382L316.979 169.235L339.46 226.636L293.319 196.147L255.036 239.692L264.802 177.304L218.66 146.816Z" fill="#C80619"/>
<path d="M218.66 146.816L270.837 138.747L280.602 76.3591L303.084 133.76L387.636 113.382L316.979 169.235L339.46 226.636L293.319 196.147L255.036 239.692L264.802 177.304L218.66 146.816Z" fill="#C80619"/>
</svg>
